<svg xmlns="http://www.w3.org/2000/svg" width="8" height="14.001" viewBox="0 0 8 14.001">
  <path id="facebook" d="M1428.7,18l-1.919,0a3.278,3.278,0,0,0-3.549,3.446V23.03H1421.3a.3.3,0,0,0-.3.286v2.3a.293.293,0,0,0,.3.285h1.929v5.809a.294.294,0,0,0,.3.285h2.517a.294.294,0,0,0,.3-.285V25.9h2.256a.293.293,0,0,0,.3-.285v-2.3a.278.278,0,0,0-.089-.2.313.313,0,0,0-.213-.084h-2.256V21.684c0-.648.163-.977,1.054-.977h1.293a.294.294,0,0,0,.3-.286V18.285A.293.293,0,0,0,1428.7,18Z" transform="translate(-1421 -17.996)" opacity="0.4"/>
</svg>
