<svg xmlns="http://www.w3.org/2000/svg" width="21.499" height="13.653" viewBox="0 0 21.499 13.653">
  <path id="google_" data-name="google+" d="M1490.537,31.651a7.416,7.416,0,0,1-6.188-3.553,6.1,6.1,0,0,1-.534-5.239,7.666,7.666,0,0,1,4.255-4.492,5.918,5.918,0,0,1,2.142-.369,6.5,6.5,0,0,1,4.631,1.705v.1l-.865.865-.8.8c-.219-.09-.43-.19-.634-.287a6.534,6.534,0,0,0-1.751-.62,3.717,3.717,0,0,0-.636-.055,3.92,3.92,0,0,0-3.142,1.67,4.441,4.441,0,0,0-.706,3.92,4.506,4.506,0,0,0,4.352,2.98,3.354,3.354,0,0,0,3.566-2.886l-1.916-.024h-.016l-1.932-.024V23.854h6.487c.052,3.388-.843,5.539-2.814,6.772A6.507,6.507,0,0,1,1490.537,31.651ZM1503,27.717h-1.956V25.808l-1.605-.039-.35-.009V23.854h1.956V21.9H1503v1.955h1.956v1.907l-1.019.025-.937.022v1.908Z" transform="translate(-1483.457 -17.999)" fill="#4e4e4e" opacity="0.4"/>
</svg>
