<svg xmlns="http://www.w3.org/2000/svg" width="18" height="16.002" viewBox="0 0 18 16.002">
  <path id="heart" d="M677.724,1310.29A4.728,4.728,0,0,0,674.2,1309a3.875,3.875,0,0,0-1.271.224,5.049,5.049,0,0,0-1.205.6q-.558.381-.959.714a9.312,9.312,0,0,0-.763.708,9.312,9.312,0,0,0-.763-.708q-.4-.333-.959-.714a5.059,5.059,0,0,0-1.205-.6A3.874,3.874,0,0,0,665.8,1309a4.73,4.73,0,0,0-3.526,1.292,4.88,4.88,0,0,0-1.276,3.584,4.719,4.719,0,0,0,.236,1.437,6.438,6.438,0,0,0,.537,1.261,9.22,9.22,0,0,0,.683,1.016q.382.5.558.683a3.464,3.464,0,0,0,.276.271l6.268,6.271a.613.613,0,0,0,.884,0l6.258-6.251a6.907,6.907,0,0,0,2.3-4.688A4.88,4.88,0,0,0,677.724,1310.29Z" transform="translate(-661 -1308.998)" fill="#f04e4e"/>
</svg>
