<svg xmlns="http://www.w3.org/2000/svg" width="15.019" height="13.987" viewBox="0 0 15.019 13.987">
  <path id="linkedIn" d="M1526.821,18a1.379,1.379,0,0,1,1.1.462,1.833,1.833,0,0,1,.428,1.16,1.613,1.613,0,0,1-.45,1.16,1.631,1.631,0,0,1-1.234.471h-.018a1.6,1.6,0,0,1-1.211-.471,1.63,1.63,0,0,1-.446-1.16,1.516,1.516,0,0,1,.492-1.164A1.9,1.9,0,0,1,1526.821,18Zm-1.634,4.541h3.211v9.445h-3.211Zm14.822,4.03v5.414h-3.21V26.938a2.83,2.83,0,0,0-.377-1.549,1.377,1.377,0,0,0-1.257-.583,1.557,1.557,0,0,0-1.079.359,2.126,2.126,0,0,0-.583.79,1.428,1.428,0,0,0-.076.349c-.012.126-.018.264-.018.407V31.99h-3.23q.021-2.4.021-4.393v-3.2c0-.465,0-.862-.012-1.19s-.009-.546-.009-.658h3.23v1.339l-.017.038h.017v-.038a3.783,3.783,0,0,1,.385-.517,2.891,2.891,0,0,1,.578-.5,3.176,3.176,0,0,1,.826-.383,3.724,3.724,0,0,1,1.114-.152,4.245,4.245,0,0,1,1.466.25,3,3,0,0,1,1.176.788,3.783,3.783,0,0,1,.777,1.325A5.651,5.651,0,0,1,1540.009,26.574Z" transform="translate(-1524.99 -18.003)" opacity="0.4"/>
</svg>
