<svg xmlns="http://www.w3.org/2000/svg" width="18" height="14.001" viewBox="0 0 18 14.001">
  <path id="icon" d="M395.863,18H382.136A2.123,2.123,0,0,0,380,20.1v9.8a2.121,2.121,0,0,0,2.137,2.1h13.727A2.121,2.121,0,0,0,398,29.9V20.1A2.123,2.123,0,0,0,395.863,18Zm0,12.146H382.136c-.173,0-.325-.115-.325-.246V21.4l6.208,5.368a.7.7,0,0,0,.456.17h1.049a.7.7,0,0,0,.456-.17l6.209-5.368v8.5C396.189,30.028,396.037,30.144,395.863,30.144ZM389,25.091l-6.039-5.238h12.077Z" transform="translate(-380 -17.997)" opacity="0.4"/>
</svg>
