<svg xmlns="http://www.w3.org/2000/svg" width="14.118" height="14.115" viewBox="0 0 14.118 14.115">
  <path id="icon" d="M636.327,32.108a6.687,6.687,0,0,1-2.564-.745,13.983,13.983,0,0,1-4.631-3.622,12.725,12.725,0,0,1-2.259-3.763,4.857,4.857,0,0,1-.376-2.093,1.705,1.705,0,0,1,.535-1.149c.359-.34.7-.695,1.049-1.042a1,1,0,0,1,1.495,0c.285.279.564.564.846.846s.546.547.82.822a.994.994,0,0,1,0,1.531c-.344.347-.684.693-1.034,1.031a.216.216,0,0,0-.053.276,6.189,6.189,0,0,0,.938,1.5,10.851,10.851,0,0,0,2.615,2.381c.217.135.458.234.684.356a.2.2,0,0,0,.288-.052c.344-.353.694-.7,1.043-1.045a.987.987,0,0,1,1.495,0q.842.837,1.68,1.677a1,1,0,0,1-.005,1.521c-.317.32-.655.626-.955.96a1.829,1.829,0,0,1-1.446.619Q636.411,32.112,636.327,32.108Zm-.714-9.133a3.737,3.737,0,0,0-2.138-1.067l.152-1.09a4.864,4.864,0,0,1,4.116,3.992l-1.084.185A3.734,3.734,0,0,0,635.613,22.974Zm1.966-1.913a6.934,6.934,0,0,0-3.96-1.974L633.771,18a8.083,8.083,0,0,1,6.834,6.625l-1.085.184A6.924,6.924,0,0,0,637.579,21.062Z" transform="translate(-626.487 -17.997)" opacity="0.4"/>
</svg>
