<svg xmlns="http://www.w3.org/2000/svg" width="20.999" height="21" viewBox="0 0 20.999 21">
  <g id="Search" transform="translate(-1519 -86.998)">
    <path id="icon" d="M1534.153,107.039l-1.664-1.656a9.226,9.226,0,0,1-3.854.785,9.585,9.585,0,1,1,9.546-9.585,9.387,9.387,0,0,1-.788,3.834l1.664,1.655a3.515,3.515,0,0,1-.087,4.88,3.664,3.664,0,0,1-2.54,1.046A3.344,3.344,0,0,1,1534.153,107.039Zm-.088-2.614,1.314,1.307a1.674,1.674,0,0,0,2.364-.087,1.654,1.654,0,0,0,.088-2.353l-1.314-1.307A9.316,9.316,0,0,1,1534.064,104.425Zm-11.035-13.42a7.936,7.936,0,1,0,5.605-2.265A7.9,7.9,0,0,0,1523.03,91.005Zm.35,4.967a.772.772,0,0,1-.613-1.045,6.066,6.066,0,0,1,2.89-3.66,6.129,6.129,0,0,1,4.642-.522.88.88,0,0,1,.7,1.045.831.831,0,0,1-1.051.61,4.357,4.357,0,0,0-5.43,2.962,1.054,1.054,0,0,1-.876.61Z"/>
  </g>
</svg>
