<svg xmlns="http://www.w3.org/2000/svg" width="15" height="12" viewBox="0 0 15 12">
  <path id="twitter" d="M1463.586,19.219a6.255,6.255,0,0,1-1.955.736,3.09,3.09,0,0,0-2.246-.958,3.054,3.054,0,0,0-3.078,3.029,3.018,3.018,0,0,0,.08.69,8.779,8.779,0,0,1-6.343-3.167,2.979,2.979,0,0,0-.416,1.524A3.019,3.019,0,0,0,1451,23.6a3.089,3.089,0,0,1-1.394-.382v.039a3.048,3.048,0,0,0,2.468,2.972,3.211,3.211,0,0,1-.811.106,3.072,3.072,0,0,1-.58-.056,3.077,3.077,0,0,0,2.874,2.105,6.238,6.238,0,0,1-3.821,1.3,6.783,6.783,0,0,1-.734-.041A8.82,8.82,0,0,0,1453.717,31a8.625,8.625,0,0,0,8.755-8.621l-.01-.393A6.158,6.158,0,0,0,1464,20.417a6.257,6.257,0,0,1-1.767.477A3.06,3.06,0,0,0,1463.586,19.219Z" transform="translate(-1449 -18.996)" fill="#ee3364"/>
</svg>
